<?xml version="1.0" encoding="UTF-8" standalone="no"?>
<!-- Created with Inkscape (http://www.inkscape.org/) -->

<svg
   version="1.1"
   id="svg1"
   width="500"
   height="488"
   viewBox="0 0 500 488"
   xmlns="http://www.w3.org/2000/svg">

  <style>
    @media (prefers-color-scheme: dark) {
      path {
        fill: white;
      }
    }
    @media (prefers-color-scheme: light) {
      path {
        fill: black;
      }
    }
  </style>

  <defs
     id="defs1" />
  <g
     id="g1">
    <path
       d="m 218.73121,471.73383 c -17.04999,-7.30976 -42.52988,-18.18422 -56.62196,-24.16548 L 136.48728,436.69334 89.317305,396.71925 c -27.31991,-23.1522 -47.33332,-40.81866 -47.55813,-41.98105 -0.51663,-2.67124 -3.21974,-25.03226 -9.0672,-75.00696 -2.34428,-20.03511 -4.18375,-35.41496 -6.472761,-54.11905 l -2.09504,-17.11905 20.178001,-36.38095 c 17.51427,-31.57824 23.29684,-40.92972 43.80352,-70.83828 l 23.625525,-34.457321 31,-11.135695 c 17.05,-6.124629 48.43307,-17.506332 69.74015,-25.292671 21.30707,-7.78634 39.3646,-14.156982 40.12782,-14.156982 0.76322,0 11.90515,4.432782 24.75985,9.850626 12.85469,5.417844 38.09974,16.050019 56.10011,23.627057 18.00036,7.577038 34.01495,14.731757 35.58796,15.899375 9.44536,7.01113 93.32511,81.380721 93.69737,83.074111 0.24771,1.12685 4.05401,33.32383 8.45843,71.54883 4.40443,38.225 8.24104,70.87209 8.5258,72.54909 0.44745,2.63511 -2.71701,8.33745 -23.30748,42 -28.45993,46.52802 -60.61161,97.13219 -63.56565,100.04726 -2.12821,2.10013 -138.52451,50.55697 -141.62437,50.31419 -0.825,-0.0646 -15.45,-6.09819 -32.5,-13.40795 z m 30.5,-14.00259 v -20.5 l -48.24999,0.086 -48.25,0.086 6.5,3.03174 c 3.575,1.66746 18.875,8.21138 34,14.54204 35.71508,14.94878 55.43818,23.16092 55.74999,23.2127 0.1375,0.0228 0.25,-9.18348 0.25,-20.45848 z m 55.67268,3.08491 c 26.85502,-9.5783 52.5396,-18.6908 57.07683,-20.25 4.53723,-1.5592 8.24973,-3.17241 8.25,-3.58491 2.7e-4,-0.4125 -25.57925,-0.75 -56.84338,-0.75 h -56.84387 l -0.65613,15.15899 c -0.75623,17.47163 -0.83772,26.84101 -0.23345,26.84101 0.23247,0 22.39497,-7.83679 49.25,-17.41509 z M 242.5038,432.36293 c 2.44159,-0.55628 -6.15384,-6.11634 -71.99999,-46.57412 -41.12493,-25.26834 -75.539615,-46.40131 -76.477105,-46.96215 -0.93749,-0.56084 -1.96325,-0.76098 -2.27947,-0.44476 -0.31622,0.31622 10.234115,21.44919 23.445185,46.96214 l 24.02013,46.3872 48.25934,0.51443 c 26.54263,0.28294 49.15932,0.5672 50.25932,0.63169 1.1,0.0645 3.24766,-0.16701 4.77259,-0.51443 z m 165.60574,-32.8011 c 10.5139,-16.86817 18.9748,-30.81079 18.802,-30.98359 -0.44588,-0.44588 -72.42857,8.46445 -76.78091,9.50427 -1.98032,0.47312 -21.77736,12.06263 -43.99342,25.75447 l -40.39283,24.89426 24.49341,0.52685 c 13.47138,0.28977 41.2024,0.62727 61.62449,0.75 l 37.13107,0.22315 z m -112.05833,5.5461 c 44.18282,-27.11392 45.46857,-27.92385 45.02176,-28.36047 -0.42019,-0.4106 -82.17253,-24.51622 -83.14486,-24.51622 -0.3833,0 -0.6969,17.1 -0.6969,38 0,20.9 0.2565,38 0.57,38 0.3135,0 17.526,-10.40549 38.25,-23.12331 z m -47.05812,-18.0393 -0.26188,-38.1626 -39.44958,-24.39679 -39.4496,-24.3968 -15.5504,7.48859 c -41.07579,19.78081 -53.03838,25.84065 -52.5551,26.6226 0.28862,0.467 11.88274,7.842 25.76472,16.3889 13.88198,8.54689 46.61497,28.81455 72.73997,45.03923 26.12499,16.22468 47.84284,29.51743 48.26187,29.53945 0.41904,0.022 0.64404,-17.13314 0.5,-38.12258 z m -121.81572,32.52098 c -0.55239,-1.4529 -3.62934,-7.6404 -6.83767,-13.75 -3.20833,-6.10961 -11.99559,-23.13498 -19.52724,-37.83418 -7.531675,-14.6992 -14.014205,-26.92375 -14.405645,-27.16567 -0.77547,-0.47927 -33.08255,13.04067 -34.61636,14.48633 -0.57091,0.53808 0.79404,2.36467 3.47174,4.64593 2.42688,2.06757 19.66435,16.92172 38.30548,33.00922 18.641125,16.0875 34.055205,29.25 34.253505,29.25 0.19829,0 -0.0914,-1.18874 -0.64381,-2.64163 z M 354.1591,360.9723 c 4.08533,-6.73258 17.04736,-27.65031 28.8045,-46.48384 l 21.37662,-34.24279 -25.22941,-27.75721 c -13.87618,-15.26647 -27.36756,-30.11972 -29.98085,-33.00722 -2.6133,-2.8875 -5.24733,-5.25 -5.85342,-5.25 -0.60609,0 -17.17673,8.20465 -36.82365,18.23256 -19.64693,10.02791 -38.46366,19.51556 -41.81496,21.08366 l -6.09328,2.8511 -0.7067,45.06636 c -0.38869,24.78649 -0.34672,45.4011 0.0933,45.81023 0.92836,0.86325 7.13034,2.75009 47.29998,14.39009 16.225,4.70154 31.525,9.19715 34,9.99023 2.475,0.79309 5.175,1.46806 6,1.49993 0.8766,0.0339 4.58703,-5.02943 8.92789,-12.1831 z m 13.78167,10.23859 c 8.13474,-1.11119 19.96544,-2.70948 26.29044,-3.55176 6.325,-0.84227 16.05775,-2.18312 21.62834,-2.97965 5.57058,-0.79653 11.30808,-1.44824 12.75,-1.44824 1.44191,0 2.62166,-0.48843 2.62166,-1.08541 0,-2.37534 -24.48519,-75.91903 -25.19495,-75.67554 -0.78476,0.26922 -52.49999,82.80241 -53.47341,85.33909 -0.66948,1.74463 -2.21608,1.80482 15.37792,-0.59849 z m 85.79044,-45.07482 c 9.9,-15.99963 18.14476,-29.71969 18.32168,-30.48901 0.17693,-0.76933 -2.35441,-6.46511 -5.62519,-12.6573 -3.27079,-6.19219 -10.78243,-20.70852 -16.69255,-32.25852 -5.91012,-11.55 -15.5144,-30.225 -21.34283,-41.5 l -10.59716,-20.5 -4.30972,45.5 -4.30972,45.5 12.77774,37.7419 c 7.02776,20.75804 13.00275,37.74443 13.27775,37.74753 0.275,0.003 8.6,-13.08498 18.5,-29.0846 z M 55.967525,345.93851 c 4.27003,-2.361 12.14914,-6.5235 17.50913,-9.25 l 9.74542,-4.95727 0.005,-4.2301 c 0.003,-3.12997 -1.26112,-6.64092 -4.86217,-13.5 -11.63569,-22.16298 -31.40499,-60.32568 -37.60197,-72.58691 -3.70183,-7.32436 -6.91118,-13.13643 -7.13189,-12.91571 -0.22072,0.22071 0.95572,12.06337 2.61431,26.31701 1.65858,14.25364 3.47125,29.96571 4.02816,34.91571 6.00479,53.37321 6.88894,60.5 7.50571,60.5 0.23376,0 3.91869,-1.93173 8.18873,-4.29273 z M 249.23121,302.73124 c 0,-22.275 -0.38225,-40.5 -0.84944,-40.5 -0.69007,0 -72.91023,34.70413 -73.96131,35.54081 -0.17091,0.13605 5.00409,3.54031 11.5,7.56501 6.49592,4.0247 22.83576,14.19081 36.31075,22.59136 13.475,8.40054 25.0625,15.28026 25.75,15.28827 0.97966,0.0114 1.25,-8.74435 1.25,-40.48545 z M 155.6022,288.92769 c -10.77339,-12.00798 -58.745545,-63.65122 -58.931305,-63.44104 -0.11889,0.13453 -1.91147,21.16959 -3.98352,46.74459 l -3.76735,46.5 2.2339,3.71529 2.23389,3.71529 32.989685,-16.51884 32.98969,-16.51883 z m -69.421035,7.30355 c 0.62184,-6.875 1.75788,-20.6 2.52452,-30.5 0.76664,-9.9 1.93672,-24.32678 2.60017,-32.05952 l 1.20628,-14.05952 -11.84728,-35.19794 c -9.05418,-26.89973 -12.1157,-34.90149 -12.98583,-33.94048 -0.6262,0.6916 -8.03281,12.50746 -16.45913,26.25746 -8.42632,13.75 -16.3436,26.52679 -17.59396,28.39286 l -2.27338,3.39285 4.06207,8.10715 c 2.23414,4.45893 6.86589,13.28214 10.29279,19.60714 3.4269,6.325 12.20893,22.975 19.51562,37 14.83866,28.48241 19.08132,36.26348 19.52519,35.80933 0.16627,-0.17013 0.8111,-5.93433 1.43294,-12.80933 z m 162.809605,-96.1971 -0.25956,-48.04278 -46.49999,-13.25916 c -25.575,-7.29254 -46.54648,-13.20107 -46.60328,-13.13006 -0.21298,0.26622 -13.85115,22.2704 -35.38211,57.08641 -19.39364,31.35995 -22.084615,36.20093 -21.046835,37.86269 0.65446,1.04796 15.374445,17.36364 32.711085,36.25708 l 31.52117,34.3517 42.90954,-21.54156 42.90953,-21.54155 z m 219.7203,54.6971 c -1.28629,-11.55 -2.83819,-25.275 -3.44866,-30.5 -0.61047,-5.225 -2.66335,-23.18363 -4.56197,-39.90806 -1.89861,-16.72444 -3.56839,-30.50722 -3.71062,-30.62841 -0.22243,-0.18952 -36.64314,20.23896 -37.61141,21.09634 -0.19405,0.17183 6.39979,13.50364 14.65298,29.62627 8.25318,16.12262 19.86756,38.85824 25.80974,50.52359 5.94217,11.66536 10.89501,21.11536 11.0063,21 0.11129,-0.11535 -0.85007,-9.65973 -2.13636,-21.20973 z m -61.56022,2.5 c 0.64128,-8.525 1.60642,-19.55 2.14475,-24.5 3.22105,-29.61779 4.8454,-51.98839 3.84557,-52.96128 -0.74409,-0.72406 -10.66175,3.84018 -32.73871,15.06679 -17.41919,8.85804 -31.67125,16.54136 -31.67125,17.07405 0,1.58441 55.87094,62.356 56.59171,61.55557 0.36408,-0.40432 1.18665,-7.71013 1.82793,-16.23513 z M 296.43752,224.66366 c 20.51153,-10.21216 37.40033,-18.87466 37.53068,-19.25 0.13034,-0.37533 -16.85716,-11.33868 -37.75,-24.36299 l -37.98699,-23.68058 v 42.93058 c 0,23.61181 0.20534,42.93057 0.45631,42.93057 0.25096,0 17.23846,-8.35541 37.75,-18.56758 z M 106.274,197.23124 c 13.87466,-22.5156 26.09244,-42.22113 29.45086,-47.5 10.79766,-16.9721 14.30027,-23.03802 13.47069,-23.32894 -0.83681,-0.29346 -17.47623,2.12155 -43.46433,6.30834 -4.94999,0.79746 -13.862115,2.21078 -19.804695,3.14071 -16.41956,2.56942 -16.24361,-0.26258 -2.58665,41.63327 6.13993,18.83564 11.38052,34.6273 11.64576,35.09258 0.75394,1.32259 2.3738,-0.87952 11.288365,-15.34596 z m 265.8875,-9.75 32.10127,-15.75 -62.19484,-39 C 266.09005,85.088429 258.28411,80.231239 257.69561,80.231239 c -0.69786,0 -0.54693,55.286031 0.17628,64.574571 l 0.6287,8.07457 36.03335,22.42543 c 19.81834,12.33399 37.87023,23.62794 40.11531,25.09767 2.24508,1.46973 4.38099,2.70723 4.74647,2.75 0.36548,0.0428 15.11008,-7.00974 32.76578,-15.67224 z m 41.28749,-22.02181 c -0.85483,-2.11011 -48.30316,-95.559781 -48.79625,-96.104401 -0.18734,-0.20692 -15.99633,-0.74071 -35.13108,-1.18621 -19.13475,-0.4455 -43.22795,-1.06494 -53.54045,-1.37654 l -18.75,-0.56654 v 2.47647 c 0,1.98564 1.43695,3.38594 7.25,7.06508 52.2955,33.098361 146.64598,91.394641 147.96778,91.424781 1.25258,0.0286 1.52339,-0.44065 1,-1.73264 z m 24.09544,-9.53745 16.81322,-8.19074 -36.20646,-32 c -19.91356,-17.6 -37.74662,-33.294671 -39.62904,-34.877051 -3.006,-2.52688 -0.79749,2.37198 18.14552,40.250001 11.86245,23.71988 22.12956,43.10038 22.81581,43.06779 0.68625,-0.0326 8.81368,-3.7451 18.06095,-8.25 z M 249.23121,112.34787 V 77.464499 l -2.25,-0.60297 c -1.2375,-0.33164 -4.18847,-0.60912 -6.55771,-0.61663 -3.69302,-0.0117 -6.47559,1.31564 -19.5,9.30194 -8.35575,5.123581 -25.20268,15.361081 -37.43762,22.750001 -12.23493,7.38892 -22.24532,13.6594 -22.24531,13.9344 2e-5,0.59343 83.69689,24.76181 86.24064,24.90292 1.63508,0.0907 1.75,-2.19372 1.75,-34.78629 z m -137.99999,14.91357 c 11.275,-1.70867 25.39576,-3.76959 31.37946,-4.57983 l 10.87945,-1.47317 20.62055,-12.64752 c 11.3413,-6.95613 27.82054,-16.9635 36.62054,-22.2386 l 15.99999,-9.591081 -11.49999,-0.62302 c -6.325,-0.34266 -31.20333,-1.21076 -55.28518,-1.92911 -37.84703,-1.12896 -43.96559,-1.11227 -45.11552,0.12302 -0.73169,0.78601 -7.98711,12.229111 -16.123155,25.429111 -8.13605,13.2 -15.89441,25.75434 -17.24079,27.89853 l -2.44796,3.89853 5.8563,-0.5801 c 3.22097,-0.31906 15.08131,-1.9781 26.356305,-3.68676 z m 133.76334,-61.556771 5.23665,-3.526563 V 43.26369 c 0,-10.402928 -0.3431,-19.126462 -0.76244,-19.385631 -0.41935,-0.259169 -9.75685,2.864968 -20.75,6.942525 -10.99315,4.077557 -36.97141,13.600547 -57.72946,21.162198 -20.75806,7.561652 -37.74556,14.085957 -37.75,14.498457 -0.004,0.4125 6.17941,0.81256 13.74191,0.88902 7.5625,0.0765 26.8,0.44114 42.75,0.81039 55.50938,1.28509 49.2629,1.56495 55.26334,-2.47598 z m 105.23665,-3.214677 c -0.825,-0.320844 -21.89713,-9.060318 -46.82695,-19.421053 -24.92982,-10.360733 -45.74232,-18.837698 -46.25,-18.837698 -1.03086,0 -1.28952,29.91765 -0.30138,34.858363 l 0.62168,3.108364 25.62832,0.284278 c 51.88913,0.57557 68.59336,0.577498 67.12833,0.0077 z"
       id="path1" />
  </g>
</svg>
